<mxfile host="app.diagrams.net" modified="2024-07-13T01:46:37.179Z" agent="Mozilla/5.0 (Windows NT 10.0; Win64; x64) AppleWebKit/537.36 (KHTML, like Gecko) Chrome/126.0.0.0 Safari/537.36 Edg/126.0.0.0" version="24.6.5" etag="GTGDWxeoRXqx1v_sdsim" type="github">
  <diagram name="Page-1" id="y84EY-Ha9d0fhVCWcgJT">
    <mxGraphModel>
      <root>
        <mxCell id="0" />
        <mxCell id="1" parent="0" />
      </root>
    </mxGraphModel>
  </diagram>
</mxfile>
